<svg width="257" height="120" viewBox="0 0 257 120" fill="none" xmlns="http://www.w3.org/2000/svg">
<path fill-rule="evenodd" clip-rule="evenodd" d="M31.9126 68.3881C28.616 67.5724 26.4929 66.6656 24.9296 65.4358C23.711 64.4335 22.392 62.7962 21.9978 61.7445C21.6498 60.7728 21.4324 59.5658 21.5507 59.1244C21.6521 58.7462 22.7468 57.688 23.9969 56.8067C25.9668 55.51 26.0806 55.3377 24.9239 55.3656C24.1794 55.3689 22.2152 55.3831 20.5539 55.2759C18.8757 55.2317 15.1961 54.5836 12.2948 53.8062C8.63661 52.826 6.21509 51.7717 3.99178 50.2299C2.28545 49.0293 0.588117 47.2906 0.303157 46.3358C0.0013042 45.444 -0.102331 44.0648 0.117288 43.2451C0.336906 42.4255 1.55778 41.4011 3.10642 40.6673C4.5582 40.0427 8.35716 39.2361 11.5795 38.8156C14.7387 38.3782 20.5988 37.4482 24.507 36.7384C28.4321 35.9656 34.5366 34.628 38.1801 33.6446C41.8067 32.7243 47.8233 30.9576 51.5175 29.7851C55.2917 28.5664 58.4138 27.5109 58.4645 27.3217C58.5152 27.1326 57.1737 26.8407 55.4201 26.5736C53.7295 26.3233 46.8209 24.6073 40.0721 22.799C32.7558 20.8386 25.6669 18.5337 22.6653 17.1212C19.8192 15.8856 16.1959 13.7659 14.5233 12.4393C12.8508 11.1127 10.864 8.68822 10.0204 7.04311C9.17679 5.39799 8.74991 3.45906 8.98642 2.57639C9.29051 1.44152 10.1408 0.790893 11.7649 0.280021C14.0243 -0.330942 14.9873 -0.140487 24.7882 2.89113C31.6586 5.00234 37.3689 6.39729 40.973 6.82241C44.0388 7.23843 51.1006 7.37367 56.7411 7.26323C62.3184 7.13589 73.5273 7.43629 81.5813 7.905C89.6185 8.43677 104.638 9.14995 114.925 9.60894C127.824 10.1596 135.542 10.8759 139.709 11.7222C143.023 12.475 148.081 14.033 150.927 15.2686C153.79 16.4412 160.092 19.4137 165.056 21.8252C169.958 24.2198 177.73 28.2621 182.266 30.7613C186.802 33.2605 194.393 37.7273 199.205 40.7062C203.955 43.6682 211.537 48.6732 216.03 51.8367C222.292 56.2177 224.04 57.7672 223.821 58.5869C223.652 59.2173 223.264 59.6541 222.886 59.5527C222.507 59.4513 220.91 58.3477 219.267 57.164C217.704 55.9342 212.959 52.7031 208.903 49.927C204.83 47.2139 197.777 42.7563 193.292 40.0679C188.824 37.3165 181.969 33.3846 178.059 31.3235C174.167 29.1993 166.55 25.3338 161.114 22.661C152.82 18.5466 149.814 17.4032 142.119 15.3414C133.306 12.9123 132.389 12.8018 117.273 12.1979C108.647 11.8461 93.645 11.0699 83.9297 10.4939C74.2143 9.91792 62.7532 9.54994 58.4587 9.68315C54.1641 9.81636 48.6667 9.89752 46.2441 9.85655C43.8383 9.75253 38.1021 8.95889 33.4303 7.97737C28.8215 7.01275 25.125 6.42771 25.1836 6.7137C25.2253 7.06275 24.581 7.701 23.7014 8.20863C22.8218 8.71626 20.2978 9.05358 18.1781 8.89107C15.9785 8.7747 14.2496 8.91963 14.3713 9.22252C14.4129 9.57156 16.2285 10.869 18.3764 12.1878C20.7427 13.7003 25.838 15.8765 31.287 17.742C36.2315 19.4724 43.5771 21.5758 47.6014 22.4513C51.6425 23.2638 58.2448 24.3572 62.1643 24.8668C66.1007 25.3134 69.5955 25.6416 69.8816 25.5831C70.2308 25.5415 70.0889 24.5575 69.6654 23.3628C69.1788 22.1512 69.0966 20.4398 69.4513 19.1158C69.9705 17.4304 70.8254 16.5107 73.0475 15.2816C75.2866 13.9894 76.9231 13.6846 79.9933 13.8315C82.6514 14.0031 85.9649 14.7559 89.8709 16.0728C93.0831 17.2038 98.3553 19.2246 101.5 20.6078C104.644 21.991 110.652 24.5468 114.852 26.2804C119.603 28.2291 129.795 31.5681 141.9 35.082C158.593 39.8927 161.317 40.8255 161.098 41.6451C160.878 42.4647 158.952 42.0838 148.179 39.3999C141.207 37.667 131.309 34.7446 126.222 33.0435C121.088 31.2625 110.796 27.2884 103.263 24.121C95.7119 21.0166 89.1366 18.3087 88.632 18.1735C88.1274 18.0383 88.8539 19.1114 90.3496 20.5934C91.7992 21.9954 93.4413 24.1924 93.9909 25.4209C94.4775 26.6325 94.8334 28.0793 94.6352 28.5668C94.5001 29.0712 93.7713 30.0247 93.064 30.6461C92.3398 31.3305 90.4928 31.9168 89.0038 31.9233C87.3549 32.022 86.5259 32.3405 86.9168 32.648C87.2907 33.0185 90.8217 34.9782 94.7479 36.9763C98.6742 38.9744 105.665 42.4018 110.268 44.6488C114.888 46.8328 121.812 50.5124 125.636 52.8888C129.478 55.2021 134.614 58.7407 137.035 60.8084C139.455 62.876 145.455 68.7408 150.438 73.8601C156.307 79.9603 160.941 84.1079 163.762 85.9448C166.128 87.4573 172.925 91.1031 178.848 93.9741C184.755 96.9082 193.524 101.015 198.384 103.06C204.862 105.878 209.021 107.262 214.18 108.442C220.635 109.834 221.901 109.902 229.897 109.072C236.927 108.32 239.349 108.361 242.692 109.257C245.169 109.853 248.423 111.333 250.869 112.799C253.126 114.215 255.471 116.059 256.168 116.99C256.865 117.92 257.087 118.858 256.75 119.105C256.431 119.29 253.871 117.996 251.13 116.113C247.528 113.661 245.015 112.447 242.033 111.715C238.817 110.853 236.6 110.8 231.632 111.429C228.187 111.925 223.131 112.124 220.473 111.952C217.878 111.798 213.723 111.157 211.263 110.498C208.803 109.839 203.497 107.944 199.36 106.228C195.27 104.591 186.437 100.468 179.682 97.1708C172.926 93.874 165.751 90.1268 163.666 88.8248C161.581 87.5229 158.656 85.3201 157.173 84.0442C155.643 82.6883 151.265 78.3392 140.397 67.1827L124.175 70.2018C115.277 71.8722 104.335 73.603 99.7963 74.1437C95.3373 74.6383 88.6787 75.0165 85.0363 74.9866C81.4569 74.9735 77.2976 74.6023 75.7838 74.1967C74.3332 73.808 72.5255 72.9858 71.7269 72.434C70.9284 71.8821 69.9496 70.7414 69.5047 69.8789C68.7366 68.4567 68.6104 68.4229 61.7705 69.2256C57.9299 69.6831 51.4143 70.0321 47.3766 69.9638C43.3219 69.9586 39.2211 69.8734 38.3043 69.7629C37.3875 69.6524 34.4986 69.081 31.9126 68.3881ZM46.3403 67.5238C49.4906 67.6246 55.657 67.3172 60.0529 66.8057C64.4488 66.2942 72.4375 64.9884 77.73 63.9062C83.0224 62.8241 91.1632 60.9509 95.728 59.8089C100.293 58.667 107.769 56.7509 112.225 55.512C116.726 54.3531 120.467 53.2606 120.518 53.0714C120.568 52.8823 115.31 50.0542 108.869 46.8419L97.0737 40.9107C89.7405 42.7975 80.6446 44.9554 72.1209 46.9962C63.6141 48.974 52.5956 51.4952 47.6692 52.4727C40.7403 53.8597 38.8763 54.5091 39.355 55.2455C39.6951 55.7421 39.8078 56.5832 39.6726 57.0876C39.5375 57.592 38.0767 58.7548 36.4605 59.7408C34.7981 60.6468 31.8945 61.8961 29.9044 62.5116C27.5313 63.2948 26.6979 63.8823 27.2779 64.2405C27.7318 64.5648 30.3639 65.3377 33.013 66.0475C35.742 66.7112 38.5509 67.3287 39.2954 67.3255C40.023 67.3853 43.1732 67.4861 46.3403 67.5238ZM33.5513 58.4882L35.8827 57.356C31.5499 57.8844 29.3874 58.3861 28.1924 58.8093C27.0774 59.1862 26.084 59.8661 25.9995 60.1813C25.9151 60.4966 25.8937 60.8287 25.9567 60.8456C26.0998 60.8164 27.3072 60.5993 28.6914 60.2269C30.0587 59.9175 32.3056 59.1005 33.5513 58.4882ZM98.617 71.7329C102.235 71.3508 109.967 70.2465 115.844 69.2534C121.674 68.1803 129.062 66.8486 132.208 66.2051L137.93 65.0352C133.686 61.1951 130.698 58.9753 128.458 57.4966L124.448 54.8004C108.061 59.1941 100.219 61.2149 96.4488 62.1645C92.6792 63.1141 85.3335 64.7948 80.2303 65.9277L70.8991 67.9549C73.0289 70.3501 74.7566 71.2185 76.9642 71.81C78.8732 72.254 83.0326 72.6252 86.2335 72.5368C89.4344 72.4484 94.9994 72.1151 98.617 71.7329ZM35.6405 51.9526C39.7041 51.4197 46.7254 50.1926 51.2564 49.1767C55.7875 48.1608 67.092 45.5812 76.4109 43.3479C88.8304 40.3913 92.9537 39.131 92.2183 38.5961C91.5752 38.221 87.1027 35.7387 82.2686 33.0919C74.0591 28.6622 73.0837 28.2657 69.4458 27.9667C66.2663 27.7229 63.7546 28.2662 56.9384 30.4943C52.2553 32.0776 45.7589 34.1211 42.5276 35.0798C39.2963 36.0385 32.2998 37.6777 27.0243 38.6968C21.7319 39.779 17.1839 40.8579 16.8933 41.1855C16.6827 41.4669 15.4956 42.3652 14.3423 43.1374C13.2059 43.8465 10.2899 44.8897 7.7783 45.4331C5.34665 45.9303 3.48265 46.5796 3.68426 46.8364C3.86898 47.1561 5.01219 47.9355 6.0923 48.6979C7.18931 49.3973 10.5108 50.6251 13.4752 51.4194C16.5195 52.1676 20.9436 52.8125 23.5723 52.8411C26.2011 52.8697 31.5937 52.4225 35.6405 51.9526ZM90.6853 28.9275C91.4681 28.5291 92.1923 27.8447 92.2475 27.3864C92.3488 27.0081 91.6899 25.6828 90.7742 24.559C89.9385 23.389 88.0351 21.6626 86.6103 20.6727C85.1687 19.7458 82.3225 18.5101 80.258 17.8894C77.4198 17.1289 75.9477 17.0723 74.3529 17.7262C73.221 18.1662 72.1432 19.1613 71.9404 19.9179C71.7208 20.7375 72.0137 22.1675 72.5678 23.1269C73.2019 24.0401 74.7145 25.4591 76.0008 26.2092C77.287 26.9593 80.1838 28.0057 82.4544 28.6141C84.7419 29.1595 87.1893 29.6126 87.9169 29.6724C88.6614 29.6691 89.8857 29.389 90.6853 28.9275ZM21.7022 5.57813C21.2821 5.12769 19.6468 4.41919 18.07 3.99668C16.4932 3.57418 14.5672 3.19328 13.6965 3.16273C12.889 3.14907 12.1063 3.54748 11.9711 4.05187C11.7853 4.7454 12.4746 5.20043 14.699 5.72888C16.4019 6.18519 18.8201 6.49526 20.1198 6.43808C21.941 6.45304 22.324 6.28532 21.7022 5.57813Z" fill="#77665A"/>
</svg>
